<?xml version="1.0" encoding="UTF-8"?>
<svg id="Layer_1" data-name="Layer 1" xmlns="http://www.w3.org/2000/svg" viewBox="0 0 707.23 402.28">
  <defs>
    <style>
      .cls-1 {
        fill: #f5dfb9;
      }
    </style>
  </defs>
  <path class="cls-1" d="M184.03,203.6c.11,3.16-3.33,10.2-3.77,10.08C-43.44,148.92-22.59,34.95,49.69,7.26c86.18-33.34,241.91,52.74,332.91,164.48C518.37-4.95,577.89,19.98,707.23,19.98c-113.96,144.98-226.56,278.44-414.94,170.47C244.09,56.52,134.88,28.91,109.4,47.8c-47.5,35.57,21.79,129.02,74.63,155.8Z"/>
  <path class="cls-1" d="M656.72,395.36h-204.54l-19.47-24c-1.79-1.9-2.11-3.12-5.83-1.22-11.21,5.15-32.05,17.11-65.98,23.76-3.45.68-12.89,1.15-26.22,1.46-66.21,0-225.95-.75-225.95-.75,74.72-85.95,154.48-152.52,252.13-150.21l16.05,22.55c-7.09-3.31-15.01-5.17-23.36-5.17-25.78,0-47.42,17.66-53.49,41.55h-58.61l-32.68,31.75,32.68.45h60.1c7.61,21.36,28.02,36.65,52,36.65s44.38-15.29,52-36.65h67.36l21.38-28.2-2.27-4h-84.98c-.72-2.85-1.67-5.61-2.82-8.26,15.5-24.17,32.7-45.7,77.18-45.97h105.53l-2.93,11.69c-49.33,0-72.53,22.44-73.17,53.04-.02.44-.02.88-.02,1.33,0,3.68.55,7.26,1.58,10.72,7.78,26.26,43.17,45.3,76.48,45.3h52.78l15.07,24.18Z"/>
  <path class="cls-1" d="M574.6,313.68v12.34h-74.15c-1.07-3.54-1.64-7.21-1.64-10.98,0-.46,0-.91.02-1.36h75.77Z"/>
</svg>